<?xml version="1.0" standalone="no"?>
<!DOCTYPE svg PUBLIC "-//W3C//DTD SVG 20010904//EN"
 "http://www.w3.org/TR/2001/REC-SVG-20010904/DTD/svg10.dtd">
<svg version="1.0" xmlns="http://www.w3.org/2000/svg"
 width="694.000000pt" height="694.000000pt" viewBox="0 0 694.000000 694.000000"
 preserveAspectRatio="xMidYMid meet">
<metadata>
Created by potrace 1.14, written by Peter Selinger 2001-2017
</metadata>
<g transform="translate(0.000000,694.000000) scale(0.100000,-0.100000)"
fill="#000000" stroke="none">
<path d="M0 6161 l0 -499 23 -4 c13 -3 34 -1 46 4 12 4 20 4 17 0 -2 -4 22 -7
55 -7 32 0 59 4 59 8 0 5 5 5 11 1 16 -10 109 -11 109 -1 0 5 5 5 11 1 16 -10
109 -11 109 -1 0 5 5 5 11 1 16 -10 109 -11 109 -1 0 5 5 5 11 1 16 -10 109
-11 109 -1 0 5 5 5 12 1 16 -10 179 -11 201 -1 9 4 17 4 17 0 0 -4 21 -8 47
-7 l48 1 3 501 2 502 -505 0 -505 0 0 -499z"/>
<path d="M2650 6558 c-18 -7 -19 -29 -19 -541 l0 -533 544 -1 543 0 0 541 0
541 -525 0 c-288 0 -533 -3 -543 -7z"/>
<path d="M1563 6287 c-4 -7 -7 -460 -4 -523 1 -16 541 -17 542 -1 0 7 1 128 2
270 l2 257 -95 1 c-52 0 -173 1 -268 2 -96 1 -176 -2 -179 -6z"/>
<path d="M259 4940 l-25 -5 0 -790 1 -789 795 -1 795 0 3 795 2 795 -773 0
c-425 0 -784 -2 -798 -5z"/>
<path d="M2461 4730 c-4 -3 -7 -1005 -7 -2228 l0 -2222 1821 3 c1001 1 1829 5
1840 9 37 13 85 27 88 26 8 -4 143 47 149 56 4 6 8 7 8 3 0 -9 72 30 154 85
66 44 204 180 233 228 9 17 21 30 25 30 4 0 8 4 8 9 0 5 16 37 36 70 41 68 98
230 111 311 4 30 8 858 8 1840 l0 1785 -2233 0 c-1229 0 -2237 -2 -2241 -5z"/>
</g>
</svg>
