<svg xmlns="http://www.w3.org/2000/svg" xml:space="preserve" id="Layer_1" x="0" y="0" style="enable-background:new 0 0 973 386.9" version="1.1" viewBox="0 0 973 386.9"><style>.st1{fill:#3cadef}</style><path d="M945.1 248c-15.3 0-24.5-9-24.5-24v-66.7h51.2v-55.6h-53V40.5h-14.9L846 101.7h-80.9l-50.3 82V26.2h-72.6v148.6C629.8 126.7 589 95 535.5 95c-17-.1-33.7 4.1-48.5 12.2V95.9l-74.7.2v290.8h71.9v-82.4c15.5 9.2 33.3 14 51.4 13.9 53.5 0 94.3-32 106.7-80v73h72.6v-88.5l52.8 88.6h85.7L781 201.6l29.1-44.3H848v79c0 46.6 28.4 74.8 75 74.8h50v-63.2l-27.9.1zm-414.8 6.4c-27.2 0-47.2-20.4-47.2-47.9s20-47.9 47.2-47.9 47.2 20.4 47.2 47.9-20.2 47.9-47.2 47.9z" style="fill:#191944"/><path d="M91.6 86H11.7v79.3h79.9V86zM50.5 0H0v50.1h50.5V0zM186.1 4.9h-54.4v54h54.4v-54zM105.2 18.4H78v27h27.2v-27zM347.3 96.3v173c0 6.5-1.3 13-3.8 19.1-2.5 6-6.2 11.5-10.9 16.2-4.7 4.6-10.2 8.3-16.3 10.8s-12.6 3.8-19.2 3.8H122.8V96.3h224.5z" class="st1"/></svg>