<svg xmlns="http://www.w3.org/2000/svg" xml:space="preserve" id="Layer_1" x="0" y="0" style="enable-background:new 0 0 392.5 78.3" version="1.1" viewBox="0 0 392.5 78.3"><style>.st0{fill:#fff}.st1{fill:#14bff4}.st4{fill:#009ece}.st5{fill:#00adee}</style><path d="M100.5 55.7H95v13.4H84V29.4h16.5c9.8 0 14.8 5.6 14.8 13.2 0 7-4.8 13.1-14.8 13.1zm-1.1-8.8c3.3 0 4.7-1.7 4.7-4.3 0-2.6-1.3-4.3-4.7-4.3H95v8.6h4.4zM130.8 51.7v17.4h-11V29.4h11v17.1l12.3-17.1h12.7l-14.6 19.2L156.5 69h-13.3l-12.4-17.3zM158.4 29.4h32.1v8.8h-10.6v30.9h-11V38.2h-10.5v-8.8z" class="st0"/><path d="M192.7 29.9h5.5l8.5 33.2 9.4-33.2h5.7l9 33.1 8.6-33.1h5.5l-11.4 39.2h-5.7l-9.1-31.5-9.4 31.5-5.7.1-10.9-39.3zM273.8 60.4h-17.1l-3.1 8.7h-5.4l14.2-39h5.9l14.1 39H277l-3.2-8.7zm-8.6-24-7.1 19.8h14.2l-7.1-19.8zM286.1 29.9h26.5v4.2h-10.7v35h-5.1v-35h-10.7v-4.2zM336.6 29.4c8.5 0 15.2 4.3 18.2 11.9h-6.1c-2.1-4.7-6.3-7.4-12-7.4-8.2 0-14.3 6-14.3 15.6S328.5 65 336.7 65c5.7 0 9.9-2.6 12-7.3h6.1c-2.9 7.5-9.7 11.8-18.2 11.8-11 0-19.6-8.2-19.6-20s8.6-20.1 19.6-20.1zM387.4 51.3h-20v17.8h-5.1V29.9h5.1v17.2h20V29.9h5.1v39.2h-5.1V51.3z" class="st1"/><path d="M84.1 6.2h2.1l5.5 12.3 5.5-12.3h2.1v14.9h-2V10l-5 11.1h-1.4l-5-11.2v11.2h-2V6.2zM113.9 17.8h-6.6l-1.2 3.3H104l5.4-15h2.3l5.4 15H115l-1.1-3.3zm-3.3-9.2-2.7 7.6h5.4l-2.7-7.6zM134.5 13.6c0 4.7-3 7.5-8 7.5h-4.7v-15h4.7c4.9 0 8 2.9 8 7.5zm-8 5.9c3.9 0 6-2.2 6-5.9s-2-6-6-6h-2.7v11.8h2.7zM147.4 7.7h-6.1v5h5.5v1.6h-5.5v5.2h6.1v1.6h-8.1v-15h8.1v1.6zM166.3 21.1h-5.6v-15h5.4c3.2 0 4.8 1.7 4.8 3.8 0 1.9-1.2 3-2.6 3.5 1.6.3 3 1.9 3 3.7-.1 2.2-1.9 4-5 4zm-.4-13.4h-3.3v4.9h3.3c1.8 0 2.9-.9 2.9-2.4 0-1.6-1-2.5-2.9-2.5zm.2 6.5h-3.4v5.3h3.5c1.9 0 3.1-1 3.1-2.6-.1-1.7-1.3-2.7-3.2-2.7zM174.9 6.1h2.2l3.7 7.6 3.7-7.6h2.2l-4.9 9.4v5.7h-2v-5.7l-4.9-9.4zM0 58.7V39.1l33.9-19.5 33.9 19.5v19.6L33.9 78.3z" class="st0"/><path d="M0 58.7V39.1l33.9 19.6v19.6z" style="fill:#d3d3d3"/><path d="M67.8 58.7V39.1L33.9 58.7v19.6z" style="fill:#e5e5e5"/><path d="M0 39.1V19.6L33.9 0l33.9 19.6v19.5l-17 9.8-16.9-9.8-17 9.8z" class="st1"/><path d="M16.9 48.9 0 39.1V19.6l16.9 9.7zM50.8 48.9l-16.9-9.8V19.6l16.9 9.7z" class="st4"/><path d="M16.9 48.9V29.3l17-9.7v19.5zM50.8 48.9V29.3l17-9.7v19.5z" class="st5"/></svg>